<?xml version="1.0" encoding="UTF-8" standalone="no"?><!DOCTYPE svg PUBLIC "-//W3C//DTD SVG 1.1//EN" "http://www.w3.org/Graphics/SVG/1.1/DTD/svg11.dtd"><svg width="100%" height="100%" viewBox="0 0 801 502" version="1.1" xmlns="http://www.w3.org/2000/svg" xmlns:xlink="http://www.w3.org/1999/xlink" xml:space="preserve" xmlns:serif="http://www.serif.com/" style="fill-rule:evenodd;clip-rule:evenodd;stroke-linecap:square;stroke-miterlimit:1.5;"><rect x="-0" y="0" width="800.488" height="501.664" style="fill:url(#_Linear1);"/><text x="306.232px" y="485.849px" style="font-family:'ArialMT', 'Arial', sans-serif;font-size:21.349px;fill:#fff;">SIZE OF PROBLEM</text><g transform="matrix(6.12323e-17,-1,1,6.12323e-17,-2013.53,138.734)"><text x="-208.958px" y="2057.13px" style="font-family:'ArialMT', 'Arial', sans-serif;font-size:21.349px;fill:#fff;">TIME <tspan x="-152.418px -139.763px -123.157px " y="2057.13px 2057.13px 2057.13px ">TO </tspan>SOL<tspan x="-76.092px -61.852px " y="2057.13px 2057.13px ">VE</tspan></text></g><text x="671.915px" y="304.282px" style="font-family:'ArialMT', 'Arial', sans-serif;font-size:50px;fill:#fff;">log n</text><text x="261.027px" y="56.138px" style="font-family:'ArialMT', 'Arial', sans-serif;font-size:50px;fill:#fff;">n/2</text><text x="180.109px" y="56.749px" style="font-family:'ArialMT', 'Arial', sans-serif;font-size:50px;fill:#fff;">n</text><path d="M102.643,454.917c9.534,-118.181 222.53,-110.905 584.919,-136.43" style="fill:none;stroke:#0f0;stroke-width:4.17px;"/><path d="M102.755,454.495l181.772,-389.103" style="fill:none;stroke:#ff0;stroke-width:4.17px;"/><path d="M104.389,454.971l85.871,-389.43" style="fill:none;stroke:#f00;stroke-width:4.17px;"/><path d="M101.997,68.247l0,386.385l586.479,-0" style="fill:none;stroke:#fff;stroke-width:4.17px;"/><defs><linearGradient id="_Linear1" x1="0" y1="0" x2="1" y2="0" gradientUnits="userSpaceOnUse" gradientTransform="matrix(800.488,0,0,501.664,-8.52651e-14,250.832)"><stop offset="0" style="stop-color:#fd6e6a;stop-opacity:1"/><stop offset="1" style="stop-color:#ffc600;stop-opacity:1"/></linearGradient></defs></svg>