<?xml version="1.0" encoding="UTF-8" standalone="no"?><!DOCTYPE svg PUBLIC "-//W3C//DTD SVG 1.1//EN" "http://www.w3.org/Graphics/SVG/1.1/DTD/svg11.dtd"><svg width="100%" height="100%" viewBox="0 0 1981 951" version="1.1" xmlns="http://www.w3.org/2000/svg" xmlns:xlink="http://www.w3.org/1999/xlink" xml:space="preserve" xmlns:serif="http://www.serif.com/" style="fill-rule:evenodd;clip-rule:evenodd;stroke-linejoin:round;stroke-miterlimit:2;"><path id="path1334" d="M1928.48,475.225l-208.487,-120.4l-0,85.887l-1065.64,0l207.492,-219.216c17.658,-14.154 40.763,-24.084 64.529,-24.634c96.146,0 153.242,-0.025 174.259,-0.066c14.245,40.587 52.512,69.883 98.004,69.883c57.55,0 104.254,-46.7 104.254,-104.271c-0,-57.596 -46.7,-104.279 -104.254,-104.279c-45.492,0 -83.759,29.279 -98.004,69.833l-172.217,-0.029c-46.675,0 -95.583,25.609 -126.713,55.629c0.85,-0.891 1.734,-1.841 -0.05,0.017c-0.658,0.742 -220.141,232.559 -220.141,232.559c-17.621,14.133 -40.713,23.999 -64.463,24.566l-120.55,0c-15.979,-79.637 -86.304,-139.637 -170.662,-139.637c-96.18,-0 -174.142,77.962 -174.142,174.112c-0,96.179 77.962,174.146 174.142,174.146c84.375,0 154.7,-60.05 170.679,-139.754l118.437,-0c0.304,-0 0.609,0.017 0.917,-0l261.962,-0c23.705,0.604 46.767,10.483 64.371,24.633c0,0 219.434,231.8 220.113,232.55c1.758,1.863 0.883,0.892 0.016,0.017c31.13,30.016 80.059,55.608 126.742,55.608l165.967,-0.037l-0,69.904l208.542,-0l-0,-208.521l-208.542,-0l-0,69.812c-0,0 -43.713,-0.079 -168,-0.079c-23.771,-0.546 -46.9,-10.462 -64.55,-24.616l-207.538,-219.259l805.038,0l-0,86.025l208.487,-120.383Z" style="fill:url(#_Linear1);fill-rule:nonzero;"/><defs><linearGradient id="_Linear1" x1="0" y1="0" x2="1" y2="0" gradientUnits="userSpaceOnUse" gradientTransform="matrix(1876.78,0,0,834.117,51.7,475.188)"><stop offset="0" style="stop-color:#fd6e6a;stop-opacity:1"/><stop offset="1" style="stop-color:#ffc600;stop-opacity:1"/></linearGradient></defs></svg>