<?xml version="1.0" encoding="UTF-8" standalone="no"?><!DOCTYPE svg PUBLIC "-//W3C//DTD SVG 1.1//EN" "http://www.w3.org/Graphics/SVG/1.1/DTD/svg11.dtd"><svg width="100%" height="100%" viewBox="0 0 372 295" version="1.1" xmlns="http://www.w3.org/2000/svg" xmlns:xlink="http://www.w3.org/1999/xlink" xml:space="preserve" xmlns:serif="http://www.serif.com/" style="fill-rule:evenodd;clip-rule:evenodd;stroke-linejoin:round;stroke-miterlimit:2;"><g><g><path d="M304.097,47.225l-11.611,-6.704l-45.351,78.55l11.611,6.704l45.351,-78.55Z" style="fill:#74cee4;"/><path d="M322.742,0c0.345,7.745 58.615,84.954 47.071,84.405c-16.037,-0.762 -135.379,-64.599 -143.227,-78.665c-4.09,-7.329 87.369,-3.15 96.156,-5.74Z" style="fill:#e62e25;"/><path d="M322.742,0c-93.042,6.281 7.983,66.795 -18.897,54.445c-30.044,-13.803 -69.411,-34.639 -77.259,-48.705c-4.09,-7.329 87.369,-3.15 96.156,-5.74Z" style="fill:#f2634d;"/></g><g><path d="M68.37,25.314c34.914,0 63.26,28.346 63.26,63.26c-0,34.914 -28.346,63.259 -63.26,63.259c-34.914,0 -63.259,-28.345 -63.259,-63.259c-0,-34.914 28.345,-63.26 63.259,-63.26Zm0,39.49c13.119,-0 23.77,10.651 23.77,23.77c0,13.119 -10.651,23.77 -23.77,23.77c-13.119,0 -23.77,-10.651 -23.77,-23.77c-0,-13.119 10.651,-23.77 23.77,-23.77Z" style="fill:url(#_Linear1);"/><path d="M68.37,20.204c-37.734,-0 -68.37,30.635 -68.37,68.37c-0,37.734 30.636,68.37 68.37,68.37c37.734,-0 68.37,-30.636 68.37,-68.37c0,-37.735 -30.636,-68.37 -68.37,-68.37Zm0,10.221c32.093,-0 58.149,26.056 58.149,58.149c0,32.093 -26.056,58.149 -58.149,58.149c-32.093,-0 -58.149,-26.056 -58.149,-58.149c0,-32.093 26.056,-58.149 58.149,-58.149Zm0,29.268c-15.94,0 -28.881,12.941 -28.881,28.881c0,15.94 12.941,28.881 28.881,28.881c15.94,-0 28.881,-12.941 28.881,-28.881c-0,-15.94 -12.941,-28.881 -28.881,-28.881Zm0,10.221c10.299,0 18.66,8.361 18.66,18.66c-0,10.299 -8.361,18.66 -18.66,18.66c-10.299,-0 -18.66,-8.361 -18.66,-18.66c0,-10.299 8.361,-18.66 18.66,-18.66Z" style="fill:#f0c419;"/><g><path d="M63.869,44.474c0,-1.242 1.009,-2.25 2.251,-2.25l4.5,0c1.242,0 2.251,1.008 2.251,2.25l-0,16.657c-0,1.242 -1.009,2.25 -2.251,2.25l-4.5,0c-1.242,0 -2.251,-1.008 -2.251,-2.25l0,-16.657Z" style="fill:#f0c419;"/><path d="M63.869,116.017c0,-1.242 1.009,-2.25 2.251,-2.25l4.5,-0c1.242,-0 2.251,1.008 2.251,2.25l-0,16.656c-0,1.242 -1.009,2.251 -2.251,2.251l-4.5,-0c-1.242,-0 -2.251,-1.009 -2.251,-2.251l0,-16.656Z" style="fill:#f0c419;"/></g><g><path d="M24.271,93.075c-1.242,-0 -2.251,-1.009 -2.251,-2.251l0,-4.5c0,-1.242 1.009,-2.251 2.251,-2.251l16.656,0c1.242,0 2.25,1.009 2.25,2.251l0,4.5c0,1.242 -1.008,2.251 -2.25,2.251l-16.656,-0Z" style="fill:#f0c419;"/><path d="M95.813,93.075c-1.242,-0 -2.25,-1.009 -2.25,-2.251l-0,-4.5c-0,-1.242 1.008,-2.251 2.25,-2.251l16.657,0c1.241,0 2.25,1.009 2.25,2.251l-0,4.5c-0,1.242 -1.009,2.251 -2.25,2.251l-16.657,-0Z" style="fill:#f0c419;"/></g><g><path d="M40.369,122.939c-0.878,0.879 -2.304,0.879 -3.182,0l-3.182,-3.182c-0.879,-0.878 -0.879,-2.304 -0,-3.182l11.777,-11.778c0.879,-0.879 2.305,-0.879 3.183,-0l3.182,3.182c0.879,0.878 0.879,2.304 0,3.183l-11.778,11.777Z" style="fill:#f0c419;"/><path d="M90.958,72.351c-0.879,0.878 -2.305,0.878 -3.183,0l-3.182,-3.182c-0.878,-0.878 -0.878,-2.304 -0,-3.183l11.778,-11.778c0.878,-0.878 2.304,-0.878 3.182,0l3.183,3.183c0.878,0.878 0.878,2.304 -0,3.182l-11.778,11.778Z" style="fill:#f0c419;"/></g><g><path d="M102.736,116.575c0.878,0.878 0.878,2.304 -0,3.182l-3.183,3.182c-0.878,0.879 -2.304,0.879 -3.182,0l-11.778,-11.777c-0.878,-0.879 -0.878,-2.305 -0,-3.183l3.182,-3.182c0.878,-0.879 2.304,-0.879 3.183,-0l11.778,11.778Z" style="fill:#f0c419;"/><path d="M52.147,65.986c0.879,0.879 0.879,2.305 0,3.183l-3.182,3.182c-0.878,0.878 -2.304,0.878 -3.183,0l-11.777,-11.778c-0.879,-0.878 -0.879,-2.304 -0,-3.182l3.182,-3.183c0.878,-0.878 2.304,-0.878 3.182,0l11.778,11.778Z" style="fill:#f0c419;"/></g></g><path d="M62.017,71.314l239.153,-0l-64.102,223.008l-111.504,-0l-63.547,-223.008Z" style="fill:#d8e5e1;fill-opacity:0.8;"/><path d="M69.812,98.921l223.008,-0l-55.752,195.401l-111.504,-0l-55.752,-195.401Z" style="fill:url(#_Linear2);"/></g><defs><linearGradient id="_Linear1" x1="0" y1="0" x2="1" y2="0" gradientUnits="userSpaceOnUse" gradientTransform="matrix(126.519,0,0,126.519,5.11053,88.5739)"><stop offset="0" style="stop-color:#ffc600;stop-opacity:1"/><stop offset="1" style="stop-color:#fd6e6a;stop-opacity:1"/></linearGradient><linearGradient id="_Linear2" x1="0" y1="0" x2="1" y2="0" gradientUnits="userSpaceOnUse" gradientTransform="matrix(-223.008,2.73106e-14,-2.39297e-14,-195.401,292.82,196.621)"><stop offset="0" style="stop-color:#fd6e6a;stop-opacity:1"/><stop offset="0.51" style="stop-color:#feaf1c;stop-opacity:1"/><stop offset="1" style="stop-color:#ffc600;stop-opacity:1"/></linearGradient></defs></svg>