<?xml version="1.0" encoding="UTF-8" standalone="no"?><!DOCTYPE svg PUBLIC "-//W3C//DTD SVG 1.1//EN" "http://www.w3.org/Graphics/SVG/1.1/DTD/svg11.dtd"><svg width="100%" height="100%" viewBox="0 0 279 279" version="1.1" xmlns="http://www.w3.org/2000/svg" xmlns:xlink="http://www.w3.org/1999/xlink" xml:space="preserve" xmlns:serif="http://www.serif.com/" style="fill-rule:evenodd;clip-rule:evenodd;stroke-linecap:round;stroke-linejoin:round;stroke-miterlimit:1.5;"><g><path d="M139.357,10.417c71.164,-0 128.94,57.776 128.94,128.94c0,71.164 -57.776,128.94 -128.94,128.94c-71.164,0 -128.94,-57.776 -128.94,-128.94c-0,-71.164 57.776,-128.94 128.94,-128.94Zm-0,80.49c26.74,-0 48.45,21.709 48.45,48.45c0,26.74 -21.71,48.45 -48.45,48.45c-26.741,0 -48.45,-21.71 -48.45,-48.45c-0,-26.741 21.709,-48.45 48.45,-48.45Z" style="fill:url(#_Linear1);stroke:#f0c419;stroke-width:20.83px;"/><g><path d="M130.183,49.47c0,-2.531 2.056,-4.587 4.587,-4.587l9.174,0c2.531,0 4.586,2.056 4.586,4.587l0,33.95c0,2.532 -2.055,4.587 -4.586,4.587l-9.174,0c-2.531,0 -4.587,-2.055 -4.587,-4.587l0,-33.95Z" style="fill:#f0c419;"/><path d="M130.183,195.293c0,-2.531 2.056,-4.586 4.587,-4.586l9.174,-0c2.531,-0 4.586,2.055 4.586,4.586l0,33.951c0,2.531 -2.055,4.586 -4.586,4.586l-9.174,0c-2.531,0 -4.587,-2.055 -4.587,-4.586l0,-33.951Z" style="fill:#f0c419;"/></g><g><path d="M49.47,148.53c-2.531,0 -4.587,-2.055 -4.587,-4.586l0,-9.174c0,-2.531 2.056,-4.587 4.587,-4.587l33.95,0c2.532,0 4.587,2.056 4.587,4.587l0,9.174c0,2.531 -2.055,4.586 -4.587,4.586l-33.95,0Z" style="fill:#f0c419;"/><path d="M195.293,148.53c-2.531,0 -4.586,-2.055 -4.586,-4.586l-0,-9.174c-0,-2.531 2.055,-4.587 4.586,-4.587l33.951,0c2.531,0 4.586,2.056 4.586,4.587l0,9.174c0,2.531 -2.055,4.586 -4.586,4.586l-33.951,0Z" style="fill:#f0c419;"/></g><g><path d="M82.284,209.403c-1.79,1.79 -4.697,1.79 -6.487,0l-6.486,-6.487c-1.79,-1.79 -1.79,-4.696 -0,-6.486l24.006,-24.007c1.79,-1.79 4.697,-1.79 6.487,0l6.486,6.487c1.791,1.79 1.791,4.697 0,6.487l-24.006,24.006Z" style="fill:#f0c419;"/><path d="M185.397,106.29c-1.79,1.791 -4.697,1.791 -6.487,0l-6.487,-6.486c-1.79,-1.79 -1.79,-4.697 0,-6.487l24.007,-24.006c1.79,-1.79 4.696,-1.79 6.486,-0l6.487,6.486c1.79,1.79 1.79,4.697 0,6.487l-24.006,24.006Z" style="fill:#f0c419;"/></g><g><path d="M209.403,196.43c1.79,1.79 1.79,4.696 0,6.486l-6.487,6.487c-1.79,1.79 -4.696,1.79 -6.486,0l-24.007,-24.006c-1.79,-1.79 -1.79,-4.697 0,-6.487l6.487,-6.487c1.79,-1.79 4.697,-1.79 6.487,0l24.006,24.007Z" style="fill:#f0c419;"/><path d="M106.29,93.317c1.791,1.79 1.791,4.697 0,6.487l-6.486,6.486c-1.79,1.791 -4.697,1.791 -6.487,0l-24.006,-24.006c-1.79,-1.79 -1.79,-4.697 -0,-6.487l6.486,-6.486c1.79,-1.79 4.697,-1.79 6.487,-0l24.006,24.006Z" style="fill:#f0c419;"/></g></g><defs><linearGradient id="_Linear1" x1="0" y1="0" x2="1" y2="0" gradientUnits="userSpaceOnUse" gradientTransform="matrix(257.88,0,0,257.88,10.4167,139.357)"><stop offset="0" style="stop-color:#ffc600;stop-opacity:1"/><stop offset="1" style="stop-color:#fd6e6a;stop-opacity:1"/></linearGradient></defs></svg>