<?xml version="1.0" encoding="UTF-8" standalone="no"?><!DOCTYPE svg PUBLIC "-//W3C//DTD SVG 1.1//EN" "http://www.w3.org/Graphics/SVG/1.1/DTD/svg11.dtd"><svg width="100%" height="100%" viewBox="0 0 402 390" version="1.1" xmlns="http://www.w3.org/2000/svg" xmlns:xlink="http://www.w3.org/1999/xlink" xml:space="preserve" xmlns:serif="http://www.serif.com/" style="fill-rule:evenodd;clip-rule:evenodd;stroke-linejoin:round;stroke-miterlimit:2;"><rect x="0" y="0" width="401.644" height="389.598" style="fill:url(#_Linear1);"/><path d="M173.944,253.411l-0.023,-0l-147.546,-196.044c29.831,-46.047 318.458,-45.649 348.894,0l-147.546,196.044l-0.023,-0l-0,106.383c-14.874,6.887 -24.263,15.902 -40.451,7.494c-4.517,-2.346 -8.771,-5.181 -13.305,-7.494l-0,-106.383Zm26.878,-219.181c18.51,-0 37.031,0.562 55.501,1.77c15.168,0.992 30.271,2.868 45.344,4.827c8.042,1.046 22.458,4.112 30.582,7.158c4.525,1.696 16.479,6.921 8.317,13.296c-2.451,1.914 -5.405,3.133 -8.317,4.225c-4.277,1.603 -8.711,2.783 -13.158,3.824c-38.119,8.921 -79.414,9.931 -118.269,9.931c-18.51,-0 -37.031,-0.562 -55.502,-1.771c-15.167,-0.992 -30.27,-2.867 -45.343,-4.827c-8.042,-1.045 -22.458,-4.112 -30.582,-7.157c-4.525,-1.696 -16.479,-6.922 -8.317,-13.296c2.45,-1.914 5.405,-3.134 8.317,-4.225c4.277,-1.604 8.71,-2.784 13.158,-3.825c38.119,-8.921 79.414,-9.93 118.269,-9.93Z" style="fill:#fff;"/><defs><linearGradient id="_Linear1" x1="0" y1="0" x2="1" y2="0" gradientUnits="userSpaceOnUse" gradientTransform="matrix(401.644,0,0,389.598,0,194.799)"><stop offset="0" style="stop-color:#fd6e6a;stop-opacity:1"/><stop offset="1" style="stop-color:#ffc600;stop-opacity:1"/></linearGradient></defs></svg>