<?xml version="1.0" encoding="UTF-8" standalone="no"?><!DOCTYPE svg PUBLIC "-//W3C//DTD SVG 1.1//EN" "http://www.w3.org/Graphics/SVG/1.1/DTD/svg11.dtd"><svg width="100%" height="100%" viewBox="0 0 1554 588" version="1.1" xmlns="http://www.w3.org/2000/svg" xmlns:xlink="http://www.w3.org/1999/xlink" xml:space="preserve" xmlns:serif="http://www.serif.com/" style="fill-rule:evenodd;clip-rule:evenodd;stroke-linecap:round;stroke-linejoin:round;stroke-miterlimit:1.5;"><g><rect x="0" y="-0" width="1553.75" height="587.473" style="fill:url(#_Linear1);"/><g><rect x="534.87" y="54.038" width="478.665" height="478.665" style="fill:none;stroke:#fff;stroke-width:8.33px;"/><g><rect x="123.658" y="224.657" width="7.227" height="35.791" style="fill:#fff;fill-rule:nonzero;"/><path d="M137.842,260.448l0,-35.791l7.032,-0l14.648,23.901l0,-23.901l6.714,-0l-0,35.791l-7.251,-0l-14.429,-23.34l0,23.34l-6.714,-0Z" style="fill:#fff;fill-rule:nonzero;"/><path d="M173.878,260.448l-0,-35.791l11.596,-0c4.395,-0 7.259,0.179 8.594,0.537c2.051,0.537 3.768,1.705 5.151,3.503c1.384,1.799 2.076,4.122 2.076,6.971c-0,2.197 -0.399,4.044 -1.197,5.542c-0.797,1.497 -1.81,2.673 -3.039,3.527c-1.229,0.855 -2.478,1.42 -3.748,1.697c-1.725,0.342 -4.223,0.513 -7.495,0.513l-4.712,-0l0,13.501l-7.226,-0Zm7.226,-29.737l0,10.157l3.955,-0c2.849,-0 4.753,-0.187 5.713,-0.562c0.96,-0.374 1.713,-0.96 2.258,-1.758c0.546,-0.797 0.818,-1.725 0.818,-2.783c0,-1.302 -0.382,-2.376 -1.147,-3.222c-0.765,-0.847 -1.734,-1.376 -2.905,-1.587c-0.863,-0.163 -2.596,-0.245 -5.201,-0.245l-3.491,0Z" style="fill:#fff;fill-rule:nonzero;"/><path d="M207.178,224.657l7.227,-0l-0,19.385c-0,3.076 0.089,5.07 0.268,5.981c0.31,1.465 1.046,2.641 2.21,3.528c1.164,0.887 2.755,1.33 4.773,1.33c2.051,0 3.597,-0.419 4.639,-1.257c1.041,-0.838 1.668,-1.868 1.879,-3.088c0.212,-1.221 0.318,-3.247 0.318,-6.079l-0,-19.8l7.226,-0l0,18.799c0,4.297 -0.195,7.332 -0.586,9.106c-0.39,1.774 -1.11,3.272 -2.16,4.492c-1.05,1.221 -2.454,2.193 -4.212,2.918c-1.757,0.724 -4.052,1.086 -6.884,1.086c-3.418,0 -6.01,-0.395 -7.776,-1.184c-1.766,-0.789 -3.162,-1.815 -4.187,-3.076c-1.026,-1.261 -1.701,-2.584 -2.027,-3.967c-0.472,-2.051 -0.708,-5.078 -0.708,-9.082l0,-19.092Z" style="fill:#fff;fill-rule:nonzero;"/><path d="M251.392,260.448l0,-29.737l-10.62,0l0,-6.054l28.442,-0l0,6.054l-10.595,0l-0,29.737l-7.227,-0Z" style="fill:#fff;fill-rule:nonzero;"/><path d="M71.07,362.084l-0,-35.791l26.538,-0l0,6.054l-19.311,0l-0,7.935l17.968,-0l0,6.03l-17.968,0l-0,9.741l19.995,0l-0,6.031l-27.222,-0Z" style="fill:#fff;fill-rule:nonzero;"/><path d="M104.493,362.084l-0,-35.791l7.031,-0l14.649,23.901l-0,-23.901l6.713,-0l0,35.791l-7.251,-0l-14.428,-23.34l-0,23.34l-6.714,-0Z" style="fill:#fff;fill-rule:nonzero;"/><path d="M148.585,362.084l-0,-29.737l-10.621,0l0,-6.054l28.443,-0l-0,6.054l-10.596,0l0,29.737l-7.226,-0Z" style="fill:#fff;fill-rule:nonzero;"/><path d="M171.094,362.084l0,-35.791l15.21,-0c3.825,-0 6.604,0.321 8.338,0.964c1.733,0.643 3.121,1.786 4.162,3.43c1.042,1.644 1.563,3.524 1.563,5.64c-0,2.685 -0.79,4.903 -2.368,6.653c-1.579,1.749 -3.939,2.852 -7.08,3.308c1.562,0.911 2.852,1.912 3.869,3.003c1.017,1.09 2.389,3.027 4.114,5.81l4.37,6.983l-8.642,-0l-5.225,-7.789c-1.856,-2.783 -3.125,-4.536 -3.809,-5.261c-0.683,-0.724 -1.408,-1.22 -2.173,-1.489c-0.764,-0.269 -1.977,-0.403 -3.637,-0.403l-1.465,0l-0,14.942l-7.227,-0Zm7.227,-20.655l5.347,0c3.466,0 5.631,-0.146 6.494,-0.439c0.862,-0.293 1.538,-0.798 2.026,-1.514c0.488,-0.716 0.733,-1.611 0.733,-2.685c-0,-1.205 -0.322,-2.177 -0.965,-2.918c-0.643,-0.74 -1.55,-1.208 -2.722,-1.404c-0.586,-0.081 -2.344,-0.122 -5.273,-0.122l-5.64,0l-0,9.082Z" style="fill:#fff;fill-rule:nonzero;"/><path d="M207.178,362.084l0,-35.791l26.538,-0l0,6.054l-19.311,0l-0,7.935l17.969,-0l-0,6.03l-17.969,0l-0,9.741l19.995,0l0,6.031l-27.222,-0Zm9.18,-37.842l3.369,-7.3l7.691,-0l-6.714,7.3l-4.346,-0Z" style="fill:#fff;fill-rule:nonzero;"/><path d="M240.528,362.084l-0,-35.791l26.538,-0l0,6.054l-19.311,0l-0,7.935l17.968,-0l0,6.03l-17.968,0l-0,9.741l19.995,0l-0,6.031l-27.222,-0Z" style="fill:#fff;fill-rule:nonzero;"/></g><g><path d="M1280.34,242.76c0,-3.646 0.545,-6.706 1.636,-9.18c0.814,-1.823 1.925,-3.459 3.332,-4.907c1.408,-1.449 2.951,-2.523 4.627,-3.223c2.23,-0.944 4.801,-1.416 7.715,-1.416c5.273,0 9.493,1.636 12.658,4.907c3.166,3.272 4.749,7.821 4.749,13.648c0,5.778 -1.571,10.299 -4.712,13.562c-3.141,3.263 -7.34,4.895 -12.598,4.895c-5.322,-0 -9.554,-1.624 -12.695,-4.871c-3.141,-3.247 -4.712,-7.719 -4.712,-13.415Zm7.447,-0.244c-0,4.052 0.935,7.125 2.807,9.216c1.872,2.091 4.248,3.137 7.129,3.137c2.881,0 5.245,-1.037 7.092,-3.113c1.848,-2.075 2.771,-5.188 2.771,-9.338c0,-4.102 -0.899,-7.161 -2.697,-9.18c-1.799,-2.018 -4.187,-3.027 -7.166,-3.027c-2.978,-0 -5.379,1.021 -7.202,3.064c-1.823,2.043 -2.734,5.123 -2.734,9.241Z" style="fill:#fff;fill-rule:nonzero;"/><path d="M1320.65,224.645l7.226,-0l0,19.384c0,3.077 0.09,5.07 0.269,5.982c0.309,1.465 1.046,2.641 2.209,3.528c1.164,0.887 2.755,1.33 4.773,1.33c2.051,0 3.597,-0.419 4.639,-1.257c1.042,-0.838 1.668,-1.868 1.88,-3.089c0.212,-1.22 0.317,-3.247 0.317,-6.079l0,-19.799l7.227,-0l-0,18.798c-0,4.297 -0.195,7.333 -0.586,9.107c-0.391,1.774 -1.111,3.271 -2.161,4.492c-1.05,1.221 -2.453,2.193 -4.211,2.918c-1.758,0.724 -4.053,1.086 -6.885,1.086c-3.418,-0 -6.01,-0.395 -7.776,-1.184c-1.766,-0.79 -3.161,-1.815 -4.187,-3.076c-1.025,-1.262 -1.701,-2.584 -2.026,-3.968c-0.472,-2.05 -0.708,-5.078 -0.708,-9.082l-0,-19.091Z" style="fill:#fff;fill-rule:nonzero;"/><path d="M1364.86,260.436l-0,-29.737l-10.62,0l-0,-6.054l28.442,-0l-0,6.054l-10.596,0l0,29.737l-7.226,-0Z" style="fill:#fff;fill-rule:nonzero;"/><path d="M1387.35,260.436l0,-35.791l11.597,-0c4.394,-0 7.259,0.179 8.593,0.537c2.051,0.537 3.768,1.705 5.152,3.503c1.383,1.799 2.075,4.122 2.075,6.97c0,2.198 -0.399,4.045 -1.196,5.542c-0.798,1.498 -1.811,2.674 -3.04,3.528c-1.229,0.855 -2.478,1.42 -3.747,1.697c-1.726,0.342 -4.224,0.513 -7.495,0.513l-4.712,-0l-0,13.501l-7.227,-0Zm7.227,-29.737l-0,10.157l3.955,-0c2.848,-0 4.752,-0.188 5.713,-0.562c0.96,-0.374 1.713,-0.96 2.258,-1.758c0.545,-0.797 0.818,-1.725 0.818,-2.783c-0,-1.302 -0.383,-2.376 -1.148,-3.223c-0.765,-0.846 -1.733,-1.375 -2.905,-1.587c-0.863,-0.162 -2.596,-0.244 -5.2,-0.244l-3.491,0Z" style="fill:#fff;fill-rule:nonzero;"/><path d="M1420.65,224.645l7.226,-0l0,19.384c0,3.077 0.09,5.07 0.269,5.982c0.309,1.465 1.046,2.641 2.209,3.528c1.164,0.887 2.755,1.33 4.773,1.33c2.051,0 3.597,-0.419 4.639,-1.257c1.042,-0.838 1.668,-1.868 1.88,-3.089c0.212,-1.22 0.317,-3.247 0.317,-6.079l0,-19.799l7.227,-0l-0,18.798c-0,4.297 -0.195,7.333 -0.586,9.107c-0.391,1.774 -1.111,3.271 -2.161,4.492c-1.05,1.221 -2.453,2.193 -4.211,2.918c-1.758,0.724 -4.053,1.086 -6.885,1.086c-3.418,-0 -6.01,-0.395 -7.776,-1.184c-1.766,-0.79 -3.161,-1.815 -4.187,-3.076c-1.025,-1.262 -1.701,-2.584 -2.026,-3.968c-0.472,-2.05 -0.708,-5.078 -0.708,-9.082l-0,-19.091Z" style="fill:#fff;fill-rule:nonzero;"/><path d="M1464.86,260.436l-0,-29.737l-10.62,0l-0,-6.054l28.442,-0l-0,6.054l-10.596,0l0,29.737l-7.226,-0Z" style="fill:#fff;fill-rule:nonzero;"/><path d="M1279.97,350.426l7.031,-0.684c0.423,2.36 1.282,4.094 2.576,5.2c1.294,1.107 3.039,1.661 5.237,1.661c2.327,-0 4.081,-0.493 5.261,-1.477c1.18,-0.985 1.77,-2.137 1.77,-3.455c0,-0.846 -0.248,-1.567 -0.745,-2.161c-0.496,-0.594 -1.363,-1.111 -2.6,-1.55c-0.846,-0.293 -2.775,-0.814 -5.786,-1.562c-3.874,-0.961 -6.592,-2.141 -8.154,-3.541c-2.197,-1.969 -3.296,-4.37 -3.296,-7.202c-0,-1.823 0.517,-3.527 1.55,-5.114c1.034,-1.587 2.523,-2.796 4.468,-3.626c1.945,-0.83 4.293,-1.245 7.043,-1.245c4.493,-0 7.874,0.985 10.145,2.954c2.27,1.969 3.462,4.598 3.576,7.886l-7.226,0.317c-0.31,-1.839 -0.973,-3.161 -1.99,-3.967c-1.017,-0.806 -2.543,-1.209 -4.578,-1.209c-2.099,0 -3.743,0.432 -4.931,1.294c-0.765,0.554 -1.148,1.294 -1.148,2.222c0,0.846 0.358,1.571 1.074,2.173c0.912,0.765 3.125,1.562 6.641,2.392c3.516,0.831 6.116,1.689 7.8,2.576c1.685,0.887 3.003,2.1 3.955,3.638c0.952,1.538 1.429,3.438 1.429,5.701c-0,2.05 -0.57,3.971 -1.709,5.761c-1.14,1.791 -2.751,3.121 -4.834,3.992c-2.084,0.871 -4.68,1.306 -7.788,1.306c-4.525,0 -8,-1.046 -10.425,-3.137c-2.425,-2.092 -3.874,-5.139 -4.346,-9.143Z" style="fill:#fff;fill-rule:nonzero;"/><path d="M1313.69,344.396c-0,-3.646 0.545,-6.706 1.636,-9.18c0.813,-1.823 1.924,-3.459 3.332,-4.907c1.408,-1.449 2.95,-2.523 4.627,-3.223c2.229,-0.944 4.801,-1.416 7.714,-1.416c5.274,-0 9.493,1.636 12.659,4.907c3.166,3.272 4.749,7.821 4.749,13.648c-0,5.778 -1.571,10.298 -4.712,13.562c-3.142,3.263 -7.341,4.895 -12.598,4.895c-5.322,-0 -9.554,-1.624 -12.695,-4.871c-3.142,-3.247 -4.712,-7.719 -4.712,-13.415Zm7.446,-0.245c0,4.053 0.936,7.125 2.808,9.217c1.871,2.091 4.248,3.137 7.129,3.137c2.88,-0 5.245,-1.038 7.092,-3.113c1.847,-2.075 2.771,-5.188 2.771,-9.338c-0,-4.102 -0.899,-7.162 -2.698,-9.18c-1.798,-2.018 -4.187,-3.027 -7.165,-3.027c-2.979,-0 -5.38,1.021 -7.203,3.064c-1.822,2.042 -2.734,5.123 -2.734,9.24Z" style="fill:#fff;fill-rule:nonzero;"/><path d="M1354.07,362.071l-0,-35.791l15.21,0c3.825,0 6.604,0.322 8.337,0.965c1.733,0.643 3.121,1.786 4.163,3.43c1.041,1.644 1.562,3.524 1.562,5.64c0,2.685 -0.789,4.903 -2.368,6.652c-1.579,1.75 -3.939,2.853 -7.08,3.308c1.562,0.912 2.852,1.913 3.87,3.003c1.017,1.091 2.388,3.028 4.113,5.811l4.37,6.982l-8.642,0l-5.225,-7.788c-1.855,-2.783 -3.125,-4.537 -3.808,-5.261c-0.684,-0.724 -1.408,-1.221 -2.173,-1.489c-0.765,-0.269 -1.978,-0.403 -3.638,-0.403l-1.465,-0l0,14.941l-7.226,0Zm7.226,-20.654l5.347,0c3.467,0 5.631,-0.146 6.494,-0.439c0.863,-0.293 1.538,-0.798 2.026,-1.514c0.489,-0.716 0.733,-1.611 0.733,-2.686c-0,-1.204 -0.322,-2.177 -0.964,-2.917c-0.643,-0.741 -1.551,-1.209 -2.723,-1.404c-0.586,-0.081 -2.343,-0.122 -5.273,-0.122l-5.64,0l0,9.082Z" style="fill:#fff;fill-rule:nonzero;"/><path d="M1398.21,362.071l0,-29.736l-10.62,0l0,-6.055l28.443,0l-0,6.055l-10.596,0l-0,29.736l-7.227,0Z" style="fill:#fff;fill-rule:nonzero;"/><rect x="1420.48" y="326.28" width="7.227" height="35.791" style="fill:#fff;fill-rule:nonzero;"/><path d="M1434.59,362.071l0,-35.791l26.538,0l0,6.055l-19.311,0l-0,7.935l17.969,-0l-0,6.03l-17.969,-0l-0,9.741l19.995,0l-0,6.03l-27.222,0Z" style="fill:#fff;fill-rule:nonzero;"/></g><path d="M1020.62,295.672l-0,-4.604l215.244,0l-6.935,-18.77l42.144,21.072l-42.144,21.072l6.935,-18.77l-215.244,0Z" style="fill:#fff;"/><path d="M277.328,295.672l0,-4.604l215.245,0l-6.935,-18.77l42.143,21.072l-42.143,21.072l6.935,-18.77l-215.245,0Z" style="fill:#fff;"/></g></g><defs><linearGradient id="_Linear1" x1="0" y1="0" x2="1" y2="0" gradientUnits="userSpaceOnUse" gradientTransform="matrix(1553.75,0,0,587.473,0,293.736)"><stop offset="0" style="stop-color:#fd6e6a;stop-opacity:1"/><stop offset="1" style="stop-color:#ffc600;stop-opacity:1"/></linearGradient></defs></svg>