<?xml version="1.0" encoding="UTF-8" standalone="no"?><!DOCTYPE svg PUBLIC "-//W3C//DTD SVG 1.1//EN" "http://www.w3.org/Graphics/SVG/1.1/DTD/svg11.dtd"><svg width="100%" height="100%" viewBox="0 0 409 488" version="1.1" xmlns="http://www.w3.org/2000/svg" xmlns:xlink="http://www.w3.org/1999/xlink" xml:space="preserve" xmlns:serif="http://www.serif.com/" style="fill-rule:evenodd;clip-rule:evenodd;stroke-linecap:round;stroke-linejoin:round;stroke-miterlimit:1.5;"><g><g><g><path d="M93.574,202.577c9.478,-3.572 19.751,-5.527 30.477,-5.527l18.43,0c2.601,-19.62 10.177,-39.696 12.152,-61.28c5.382,-58.824 29.739,-107.602 60.067,-134.314c-41.839,-11.126 -92.532,42.735 -113.132,120.203c-7.622,28.664 -10.063,56.568 -7.994,80.918Z" style="fill:#74c285;"/><path d="M130.725,197.05c-2.287,-18.837 -9.125,-38.277 -11.644,-58.773c-7.324,-59.6 -33.464,-109.813 -67.676,-136.623c52.359,-9.433 112.441,46.425 134.084,124.659c7.084,25.606 9.178,50.456 6.954,72.631c-7.23,-1.241 -14.722,-1.894 -22.401,-1.894l-39.317,0Z" style="fill:#4d8056;"/><path d="M115.153,197.051c-3.012,-5.909 -8.111,-11.281 -9.551,-17.761c-13.269,-59.697 -54.638,-101.402 -98.181,-119.952c44.766,-19.103 114.201,23.789 154.959,95.724c8.017,14.149 14.331,28.375 18.963,42.253c-2.59,-0.175 -5.208,-0.265 -7.851,-0.265l-58.166,0l-0.173,0.001Z" style="fill:#74c285;"/><path d="M106.133,197.288c2.505,-0.157 5.038,-0.238 7.594,-0.238l58.984,0c3.824,-7.582 9.817,-14.61 12.334,-22.818c16.657,-54.312 58.667,-97.041 100.162,-119.952c-45.67,-19.103 -116.505,23.789 -158.085,95.724c-9.172,15.868 -16.16,31.833 -20.989,47.284Z" style="fill:#4d8056;"/><path d="M159.604,197.05l14.926,0c18.418,0 35.5,5.765 49.535,15.584c-3.331,-52.299 34.821,-77.467 73.318,-86.361c-45.862,-22.551 -106.19,6.109 -134.637,63.961c-1.112,2.262 -2.159,4.535 -3.142,6.816Z" style="fill:#74c285;"/><path d="M71.516,214.829c5.052,-44.441 -30.624,-74.16 -71.516,-88.036c41.933,-20.619 99.072,9.609 127.518,67.461c0.458,0.932 0.906,1.865 1.342,2.796l-4.809,0c-19.751,0 -37.966,6.629 -52.535,17.779Z" style="fill:#4d8056;"/></g><g><path d="M123.684,184.435c-47.339,0 -85.772,38.433 -85.772,85.772l-0,122.154c-0,47.339 38.433,85.772 85.772,85.772l50.015,0c47.339,0 85.772,-38.433 85.772,-85.772l0,-122.154c0,-47.339 -38.433,-85.772 -85.772,-85.772l-50.015,0Z" style="fill:url(#_Linear1);"/><path d="M134.256,209.944c-10.117,-7.161 -20.828,-14.233 -32.215,-21.275c-6.801,1.733 -13.281,4.272 -19.333,7.509c0.45,0.436 0.957,0.827 1.517,1.162c14.891,8.908 28.626,17.838 41.378,26.918c-10.066,15.858 -21.103,30.629 -33.148,44.278c-15.37,-10.017 -31.825,-19.415 -49.371,-28.178c-2.087,5.2 -3.683,10.642 -4.733,16.276c15.034,7.617 29.226,15.723 42.575,24.306c-13.509,13.799 -28.176,26.31 -44.04,37.482l-0,29.753c14.602,9.198 28.248,18.871 40.903,29.048c-12.873,7.951 -26.347,15.23 -40.434,21.839c0.601,5.777 1.772,11.385 3.455,16.769c17.708,-8.111 34.5,-17.221 50.373,-27.319c14.374,12.707 27.274,26.153 38.626,40.374c-18.522,10.345 -38.131,19.264 -58.866,26.698c-0.89,0.319 -1.692,0.775 -2.391,1.335c5.227,4.294 10.964,7.988 17.106,10.977c19.009,-7.31 37.088,-15.845 54.26,-25.56c7.745,10.965 14.619,22.373 20.589,34.237l13.424,0c1.686,0 3.362,-0.048 5.027,-0.144c-6.933,-14.85 -15.169,-29.051 -24.669,-42.629c15.663,-9.757 30.537,-20.546 44.647,-32.337c10.636,18.319 19.492,37.667 26.604,58.03c4.849,-3.608 9.31,-7.714 13.306,-12.241c-7.398,-19.93 -16.419,-38.918 -27.105,-56.95c12.071,-10.972 23.548,-22.713 34.454,-35.206c4.188,7.027 8.293,14.275 12.339,21.757c0.513,0.949 1.184,1.758 1.963,2.413l0,-32.738c-0.986,-1.656 -1.977,-3.301 -2.973,-4.933c0.997,-1.234 1.987,-2.475 2.973,-3.723l0,-27.715c-4.039,5.637 -8.174,11.147 -12.409,16.532c-12.401,-18.849 -25.708,-36.226 -40.561,-52.597c11.934,-17.93 22.729,-37.115 32.387,-57.542c-3.809,-4.483 -8.067,-8.573 -12.704,-12.2c-9.336,20.358 -19.822,39.462 -31.464,57.3c-14.383,-14.561 -30.205,-28.376 -47.959,-41.807c6.249,-10.748 12.107,-21.945 17.576,-33.576c0.043,-0.09 0.084,-0.181 0.122,-0.272l-18.484,0c-4.039,8.22 -8.287,16.205 -12.745,23.949Zm18.588,130.013c-14.679,14.2 -30.457,27.204 -47.344,39.007c14.421,13.055 27.379,26.845 38.813,41.395c16.113,-9.96 31.363,-21.059 45.781,-33.257c-10.839,-16.629 -23.244,-32.347 -37.25,-47.145Zm44.873,-51.761c-10.267,14.129 -21.301,27.422 -33.113,39.881c14.281,15.038 26.981,30.996 38.132,47.853c12.027,-11.095 23.442,-23.002 34.261,-35.694c-12.025,-18.692 -24.905,-35.883 -39.28,-52.04Zm-102.718,2.183c-15.333,15.949 -32.11,30.292 -50.379,42.972c17.243,10.798 33.211,22.238 47.843,34.337c17.406,-11.886 33.609,-25.085 48.613,-39.585c-13.94,-13.396 -29.291,-25.975 -46.077,-37.724Zm44.056,-56.209c-9.981,15.625 -20.87,30.233 -32.697,43.802c16.889,11.939 32.371,24.698 46.467,38.253c11.92,-12.605 23.019,-26.105 33.303,-40.494c-14.09,-14.507 -29.61,-28.235 -47.073,-41.561Z" style="fill:#f0c419;"/></g></g><g><path d="M289.793,261.089c59.7,-0 108.168,48.468 108.168,108.168c0,59.699 -48.468,108.168 -108.168,108.168c-59.699,-0 -108.168,-48.469 -108.168,-108.168c0,-59.7 48.469,-108.168 108.168,-108.168Zm0,67.523c22.433,-0 40.645,18.212 40.645,40.645c0,22.432 -18.212,40.645 -40.645,40.645c-22.432,-0 -40.645,-18.213 -40.645,-40.645c0,-22.433 18.213,-40.645 40.645,-40.645Z" style="fill:url(#_Linear2);stroke:#f0c419;stroke-width:20.83px;"/><g><path d="M282.098,293.851c-0,-2.124 1.724,-3.848 3.847,-3.848l7.696,-0c2.124,-0 3.848,1.724 3.848,3.848l-0,28.481c-0,2.123 -1.724,3.847 -3.848,3.847l-7.696,0c-2.123,0 -3.847,-1.724 -3.847,-3.847l-0,-28.481Z" style="fill:#f0c419;"/><path d="M282.098,416.182c-0,-2.124 1.724,-3.848 3.847,-3.848l7.696,-0c2.124,-0 3.848,1.724 3.848,3.848l-0,28.481c-0,2.123 -1.724,3.848 -3.848,3.848l-7.696,-0c-2.123,-0 -3.847,-1.725 -3.847,-3.848l-0,-28.481Z" style="fill:#f0c419;"/></g><g><path d="M214.387,376.952c-2.123,0 -3.848,-1.724 -3.848,-3.848l0,-7.695c0,-2.124 1.725,-3.848 3.848,-3.848l28.481,-0c2.124,-0 3.848,1.724 3.848,3.848l-0,7.695c-0,2.124 -1.724,3.848 -3.848,3.848l-28.481,0Z" style="fill:#f0c419;"/><path d="M336.718,376.952c-2.123,0 -3.847,-1.724 -3.847,-3.848l-0,-7.695c-0,-2.124 1.724,-3.848 3.847,-3.848l28.481,-0c2.124,-0 3.848,1.724 3.848,3.848l0,7.695c0,2.124 -1.724,3.848 -3.848,3.848l-28.481,0Z" style="fill:#f0c419;"/></g><g><path d="M241.915,428.018c-1.502,1.502 -3.94,1.502 -5.442,0l-5.442,-5.441c-1.501,-1.502 -1.501,-3.94 0,-5.442l20.14,-20.139c1.501,-1.502 3.94,-1.502 5.441,0l5.442,5.442c1.502,1.501 1.502,3.94 -0,5.441l-20.139,20.139Z" style="fill:#f0c419;"/><path d="M328.416,341.517c-1.502,1.502 -3.94,1.502 -5.442,0l-5.441,-5.441c-1.502,-1.502 -1.502,-3.94 -0,-5.442l20.139,-20.139c1.501,-1.502 3.94,-1.502 5.441,-0l5.442,5.442c1.502,1.501 1.502,3.94 0,5.441l-20.139,20.139Z" style="fill:#f0c419;"/></g><g><path d="M348.555,417.135c1.502,1.502 1.502,3.94 0,5.442l-5.442,5.441c-1.501,1.502 -3.94,1.502 -5.441,0l-20.139,-20.139c-1.502,-1.501 -1.502,-3.94 -0,-5.441l5.441,-5.442c1.502,-1.502 3.94,-1.502 5.442,0l20.139,20.139Z" style="fill:#f0c419;"/><path d="M262.054,330.634c1.502,1.502 1.502,3.94 -0,5.442l-5.442,5.441c-1.501,1.502 -3.94,1.502 -5.441,0l-20.14,-20.139c-1.501,-1.501 -1.501,-3.94 0,-5.441l5.442,-5.442c1.502,-1.502 3.94,-1.502 5.442,-0l20.139,20.139Z" style="fill:#f0c419;"/></g></g></g><defs><linearGradient id="_Linear1" x1="0" y1="0" x2="1" y2="0" gradientUnits="userSpaceOnUse" gradientTransform="matrix(1.79838e-14,-293.698,221.559,1.35666e-14,148.691,478.133)"><stop offset="0" style="stop-color:#ffc600;stop-opacity:1"/><stop offset="1" style="stop-color:#fd6e6a;stop-opacity:1"/></linearGradient><linearGradient id="_Linear2" x1="0" y1="0" x2="1" y2="0" gradientUnits="userSpaceOnUse" gradientTransform="matrix(216.336,0,0,216.336,181.625,369.257)"><stop offset="0" style="stop-color:#ffc600;stop-opacity:1"/><stop offset="1" style="stop-color:#fd6e6a;stop-opacity:1"/></linearGradient></defs></svg>